<svg width="1200" height="630" viewBox="0 0 1200 630" fill="none" xmlns="http://www.w3.org/2000/svg">
  <rect width="1200" height="630" rx="24" fill="#0F172A"/>
  <rect x="36" y="36" width="1128" height="558" rx="20" fill="#111827" stroke="#334155"/>

  <rect x="80" y="88" width="1040" height="68" rx="10" fill="#1E293B"/>
  <rect x="112" y="111" width="140" height="22" rx="6" fill="#22D3EE"/>
  <rect x="906" y="108" width="84" height="28" rx="8" fill="#0EA5E9"/>
  <rect x="1002" y="108" width="84" height="28" rx="8" fill="#14B8A6"/>

  <rect x="80" y="188" width="510" height="354" rx="16" fill="#0B1220" stroke="#334155"/>
  <rect x="112" y="232" width="280" height="28" rx="6" fill="#22D3EE" fill-opacity="0.95"/>
  <rect x="112" y="278" width="420" height="16" rx="6" fill="#334155"/>
  <rect x="112" y="306" width="360" height="16" rx="6" fill="#334155"/>
  <rect x="112" y="334" width="300" height="16" rx="6" fill="#334155"/>
  <rect x="112" y="390" width="148" height="42" rx="10" fill="#0EA5E9"/>
  <rect x="276" y="390" width="148" height="42" rx="10" fill="#14B8A6"/>

  <rect x="614" y="188" width="506" height="354" rx="16" fill="#0B1220" stroke="#334155"/>
  <rect x="646" y="224" width="442" height="220" rx="12" fill="#1E293B"/>
  <rect x="646" y="462" width="220" height="16" rx="6" fill="#334155"/>
  <rect x="646" y="490" width="180" height="16" rx="6" fill="#334155"/>

  <text x="100" y="560" fill="#94A3B8" font-size="24" font-family="Segoe UI, Arial, sans-serif">Treact Landing Page Preview</text>
</svg>
